<svg xmlns="http://www.w3.org/2000/svg" version="1.1" xmlns:xlink="http://www.w3.org/1999/xlink" xmlns:svgjs="http://svgjs.dev/svgjs" width="1440" height="560" preserveAspectRatio="none" viewBox="0 0 1440 560"><g mask="url(&quot;#SvgjsMask1021&quot;)" fill="none"><path d="M10.45 140C8.92 133.06 0.52 137.01 0 130C-4.7 67.01 -33.7 31.3 0 0C36.3 -33.7 70 0 140 0C197.56 0 202.3 -10.56 255.11 0C272.3 3.44 266.37 28 280 28C296.31 28 294.06 4.19 315 0C364.06 -9.81 367.5 0 420 0C490 0 490 0 560 0C630 0 672.27 -34.66 700 0C728.27 35.34 672 77.32 672 140C672 153.4 687.77 152.17 700 152.17C705.89 152.17 708.24 147.22 708.24 140C708.24 71.13 667.03 35.03 700 0C732.91 -34.97 770 0 840 0C888.18 0 893 -12.39 936.36 0C963 7.61 953.02 30.4 980 40C1044.84 63.07 1049.51 56.6 1120 65.33C1189.51 73.94 1201.15 94.29 1260 74.67C1299.15 61.62 1279.16 19.65 1316 0C1349.16 -17.68 1358 0 1400 0C1470 0 1505 -35 1540 0C1575 35 1540 70 1540 140C1540 210 1540 210 1540 280C1540 350 1540 350 1540 420C1540 490 1575 525 1540 560C1505 595 1470 560 1400 560C1356.55 560 1352.59 571.59 1313.1 560C1282.59 551.05 1287.37 518.93 1260 518.93C1229.39 518.93 1231.67 549.87 1197.14 560C1161.67 570.41 1158.57 560 1120 560C1050 560 1050 560 980 560C910 560 910 560 840 560C770 560 770 560 700 560C630 560 630 560 560 560C490 560 490 560 420 560C350 560 350 560 280 560C210 560 210 560 140 560C70 560 39.75 590.25 0 560C-30.25 536.99 -23.76 490.19 0 453.48C21.54 420.19 84.13 453.79 90.59 420C100.71 367.05 53.84 352.27 33.16 280C13.77 212.27 25.5 208.06 10.45 140" stroke="rgba(62, 103, 172, 0.5)" stroke-width="2"></path><path d="M420 67.2C383.82 67.2 357.24 106.77 357.24 140C357.24 167.43 385.78 188.53 420 188.53C470.69 188.53 527.06 168.87 527.06 140C527.06 108.2 468.73 67.2 420 67.2" stroke="rgba(62, 103, 172, 0.5)" stroke-width="2"></path><path d="M1400 93.33C1370.32 93.33 1335.38 111.55 1335.38 140C1335.38 179.09 1372.06 228.42 1400 228.42C1424.86 228.42 1440.98 181.25 1440.98 140C1440.98 113.71 1423.12 93.33 1400 93.33" stroke="rgba(62, 103, 172, 0.5)" stroke-width="2"></path><path d="M980 400.31C966.77 400.31 956.67 409.82 956.67 420C956.67 430.72 966.49 442.11 980 442.11C1002.39 442.11 1028.46 430.54 1028.46 420C1028.46 409.64 1002.67 400.31 980 400.31" stroke="rgba(62, 103, 172, 0.5)" stroke-width="2"></path><path d="M62.69 140C47.6 101.9 16.31 116.42 0 80C-15.04 46.42 -25.45 14.55 0 0C44.55 -25.45 70 0 140 0C158.67 0 163.71 -11.24 177.33 0C233.71 46.51 229.87 56.8 280 115.5C289.65 126.8 285.66 130.39 296.9 140C355.66 190.24 351.11 215.72 420 235.2C482.66 252.91 494.35 202.64 560 214.38C619.62 225.04 615.09 247.49 670.53 280C685.09 288.54 685.08 296.47 700 296.47C716.28 296.47 722.56 294.61 732.94 280C778.15 216.38 802.55 213.02 811.18 140C819.1 73.02 756.45 46.58 766.04 0C770.86 -23.42 803.02 0 840 0C865.45 0 870.16 -12.1 890.91 0C940.16 28.73 930.87 47.36 980 81.67C1031.1 117.36 1052.56 96.97 1091.36 140C1122.56 174.59 1085.11 223.07 1120 236.92C1169.43 256.55 1200.35 193.85 1260 206.96C1298.35 215.39 1281.83 250.57 1316 280C1351.83 310.86 1360.13 300.52 1400 327.55C1463.38 370.52 1465.53 370 1522.5 420C1535.53 431.44 1537.88 433.45 1540 450.43C1546.63 503.45 1570.73 535.95 1540 560C1500.73 590.73 1470 560 1400 560C1386.72 560 1384.38 566.85 1373.45 560C1314.38 522.99 1320.35 510.27 1260 472.27C1209.18 440.27 1189.69 460.12 1151.11 420C1119.69 387.32 1155.12 341.93 1120 326.67C1069.57 304.75 1042.8 319.94 980 345.63C928.73 366.6 891.85 381.55 891.85 420C891.85 460.49 927.59 477.78 980 503.51C1041.67 533.78 1059.29 508.46 1120 532C1132.14 536.71 1125.71 548.33 1125.71 560C1125.71 562.33 1122.86 560 1120 560C1050 560 1050 560 980 560C910 560 910 560 840 560C784.67 560 777.11 574.44 729.35 560C707.11 553.28 719.98 517.67 700 517.67C663.94 517.67 660.58 546.91 617.27 560C590.58 568.07 588.63 560 560 560C531.37 560 502.73 573.11 502.73 560C502.73 539.95 536.11 529.93 560 493.68C582.24 459.93 595 455.83 595 420C595 390.99 588.04 373.3 560 364C500.54 344.28 485.9 346.79 420 361.95C364.16 374.79 366.58 388.52 316.52 420C296.58 432.54 298.95 450 280 450C258.58 450 259.6 431.83 235.79 420C189.6 397.05 176.71 413.25 140 380.43C98.42 343.25 96.77 334.62 79.21 280C58.12 214.41 87.2 201.9 62.69 140" stroke="rgba(62, 103, 172, 0.5)" stroke-width="2"></path><path d="M1526.34 140C1467.96 67.83 1398.98 40.36 1402.92 0C1405.81 -29.64 1506.09 -34.63 1540 0C1574.63 35.37 1540 70 1540 140C1540 154.74 1543.25 169.47 1540 169.47C1536.42 169.47 1536.5 152.56 1526.34 140" stroke="rgba(62, 103, 172, 0.5)" stroke-width="2"></path><path d="M0 491.52C47.16 461.88 81.52 452.93 140 472C186.52 487.17 210 532.88 210 560C210 576.88 175 560 140 560C70 560 47.01 582.99 0 560C-22.99 548.75 -22.84 505.88 0 491.52" stroke="rgba(62, 103, 172, 0.5)" stroke-width="2"></path><path d="M114.93 140C117.42 104.97 121.74 72.8 140 72.8C162.27 72.8 164.03 110.62 196 140C234.03 174.95 236.26 173.39 280 201.46C345.34 243.39 414.17 241.08 414.17 280C414.17 318.69 349.69 350.48 280 356.67C212.6 362.66 204.99 336.55 140 304.35C127.62 298.22 127.37 293.85 125.26 280C114.84 211.68 110.05 208.57 114.93 140" stroke="rgba(62, 103, 172, 0.5)" stroke-width="2"></path><path d="M75 0C75 7.78 27.34 30 0 30C-10.16 30 -10.71 4.29 0 0C26.79 -10.71 75 -7.22 75 0" stroke="rgba(62, 103, 172, 0.5)" stroke-width="2"></path><path d="M840 20C836.6 20 832.08 7.31 832.08 0C832.08 -2.69 836.04 0 840 0C842.72 0 845.45 -2.08 845.45 0C845.45 7.92 843.28 20 840 20" stroke="rgba(62, 103, 172, 0.5)" stroke-width="2"></path><path d="M930 140C935.62 118.61 955.67 123.33 980 123.33C996.58 123.33 1009.07 124.01 1011.82 140C1022.53 202.35 1020.1 217.5 1006.92 280C1004.19 292.97 993.81 290.94 980 290.94C959.76 290.94 944.64 297.58 938.82 280C919.64 222.11 915.03 196.94 930 140" stroke="rgba(62, 103, 172, 0.5)" stroke-width="2"></path><path d="M1540 71.63C1521.61 71.63 1475.83 21.48 1475.83 0C1475.83 -14.33 1524.84 -16.92 1540 0C1556.92 18.89 1553.7 71.63 1540 71.63" stroke="rgba(62, 103, 172, 0.5)" stroke-width="2"></path><path d="M682.5 420C682.5 410.22 688.18 399.41 700 399.41C731.93 399.41 770 410.71 770 420C770 429.15 732.83 436.28 700 436.28C689.08 436.28 682.5 428.65 682.5 420" stroke="rgba(62, 103, 172, 0.5)" stroke-width="2"></path><path d="M1248.33 420C1248.33 409.02 1247.09 396 1260 393.75C1322.92 382.79 1333.37 383.59 1400 393.58C1420.87 396.71 1435 403.39 1435 420C1435 445.77 1427.35 477.45 1400 478.33C1339.85 480.25 1329.8 452.44 1260 425.6C1253.96 423.28 1248.33 424.95 1248.33 420" stroke="rgba(62, 103, 172, 0.5)" stroke-width="2"></path><path d="M0 529.57C48.99 529.57 121.74 552.28 121.74 560C121.74 567.49 48.7 572.17 0 560C-12.17 556.96 -11.88 529.57 0 529.57" stroke="rgba(62, 103, 172, 0.5)" stroke-width="2"></path><path d="M785.81 560C785.81 519.31 801.09 444.14 840 444.14C892.8 444.14 969.23 526.79 969.23 560C969.23 584.72 904.62 560 840 560C812.9 560 785.81 577.24 785.81 560" stroke="rgba(62, 103, 172, 0.5)" stroke-width="2"></path></g><defs><mask id="SvgjsMask1021"><rect width="1440" height="560" fill="#ffffff"></rect></mask></defs></svg>